<?xml version="1.0" encoding="UTF-8"?>
<svg width="334px" height="176px" viewBox="0 0 334 176" version="1.1" xmlns="http://www.w3.org/2000/svg" xmlns:xlink="http://www.w3.org/1999/xlink">
    <!-- Generator: Sketch 55 (78076) - https://sketchapp.com -->
    <title>Logo</title>
    <desc>Created with Sketch.</desc>
    <g id="Logo" stroke="none" stroke-width="1" fill="none" fill-rule="evenodd">
        <polygon id="Path" transform="translate(187.500000, 119.500000) scale(-1, 1) rotate(-315.000000) translate(-187.500000, -119.500000) " points="-54 -122 429 -122 429 361 -54 361"></polygon>
        <polygon id="Path" fill="#000000" fill-rule="nonzero" transform="translate(189.267767, 126.217514) scale(-1, 1) rotate(-315.000000) translate(-189.267767, -126.217514) " points="124.904131 204.508559 40.4268579 120.195126 12.267767 148.299604 124.904131 260.717514 366.267767 19.821992 338.108676 -8.28248558"></polygon>
        <path d="M37.6666667,110.666667 C37.6666667,113.088901 37.0500062,115.027771 35.8166667,116.483333 C34.5833272,117.938896 32.9222327,118.666667 30.8333333,118.666667 L27.5,118.666667 C25.4111007,118.666667 23.6388962,117.938896 22.1833333,116.483333 C20.7277705,115.027771 20,113.311121 20,111.333333 L20,101.333333 C20,99.3555457 20.7277705,97.6388962 22.1833333,96.1833333 C23.6388962,94.7277705 25.4111007,94 27.5,94 L30.8333333,94 C32.9222327,94 34.5833272,94.7277705 35.8166667,96.1833333 C37.0500062,97.6388962 37.6666667,99.5777657 37.6666667,102 L33,102 C33,100.799994 32.744447,99.944447 32.2333333,99.4333333 C31.7222197,98.9222197 31.1444477,98.6666667 30.5,98.6666667 L27.8333333,98.6666667 C27.1888857,98.6666667 26.6111137,98.9222197 26.1,99.4333333 C25.5888863,99.944447 25.3333333,100.577774 25.3333333,101.333333 L25.3333333,111.333333 C25.3333333,112.088893 25.5888863,112.72222 26.1,113.233333 C26.6111137,113.744447 27.1888857,114 27.8333333,114 L30.5,114 C31.1444477,114 31.7222197,113.744447 32.2333333,113.233333 C32.744447,112.72222 33,111.866673 33,110.666667 L37.6666667,110.666667 Z M58.3333333,118.666667 L53.3333333,118.666667 L53.3333333,108 C53.3333333,107.244441 53.0777803,106.611114 52.5666667,106.1 C52.055553,105.588886 51.477781,105.333333 50.8333333,105.333333 L45,105.333333 L45,118.666667 L40,118.666667 L40,94 L45,94 L45,100.666667 L50.8333333,100.666667 C52.9222327,100.666667 54.6944372,101.394437 56.15,102.85 C57.6055628,104.305563 58.3333333,106.022212 58.3333333,108 L58.3333333,118.666667 Z M78.3333333,118.666667 L67.5,118.666667 C65.4111007,118.666667 63.6388962,117.938896 62.1833333,116.483333 C60.7277705,115.027771 60,113.311121 60,111.333333 L60,108 C60,106.022212 60.7277705,104.305563 62.1833333,102.85 C63.6388962,101.394437 65.4111007,100.666667 67.5,100.666667 L70.8333333,100.666667 C72.9222327,100.666667 74.6944372,101.394437 76.15,102.85 C77.6055628,104.305563 78.3333333,106.022212 78.3333333,108 L78.3333333,112 L65,112 C65,112.311113 65.255553,112.72222 65.7666667,113.233333 C66.2777803,113.744447 66.8555523,114 67.5,114 L78.3333333,114 L78.3333333,118.666667 Z M73.3333333,107.333333 C73.3333333,107.022221 73.0777803,106.611114 72.5666667,106.1 C72.055553,105.588886 71.477781,105.333333 70.8333333,105.333333 L67.5,105.333333 C66.8555523,105.333333 66.2777803,105.588886 65.7666667,106.1 C65.255553,106.611114 65,107.022221 65,107.333333 L73.3333333,107.333333 Z M98.3333333,118.666667 L87.5,118.666667 C85.4111007,118.666667 83.6388962,117.938896 82.1833333,116.483333 C80.7277705,115.027771 80,113.311121 80,111.333333 L80,108 C80,106.022212 80.7277705,104.305563 82.1833333,102.85 C83.6388962,101.394437 85.4111007,100.666667 87.5,100.666667 L90.8333333,100.666667 C92.9222327,100.666667 94.6944372,101.394437 96.15,102.85 C97.6055628,104.305563 98.3333333,106.244432 98.3333333,108.666667 L93.3333333,108.666667 C93.3333333,107.466661 93.0777803,106.611114 92.5666667,106.1 C92.055553,105.588886 91.477781,105.333333 90.8333333,105.333333 L87.5,105.333333 C86.8555523,105.333333 86.2777803,105.588886 85.7666667,106.1 C85.255553,106.611114 85,107.244441 85,108 L85,111.333333 C85,112.088893 85.255553,112.72222 85.7666667,113.233333 C86.2777803,113.744447 86.8555523,114 87.5,114 L98.3333333,114 L98.3333333,118.666667 Z M118.333333,118.666667 L114.8,118.666667 L107.5,111.366667 L105,113.866667 L105,118.666667 L100,118.666667 L100,94 L105,94 L105,107.133333 L111.466667,100.666667 L118.2,100.666667 L110.866667,108 L118.333333,115.466667 L118.333333,118.666667 Z M138.333333,98.6666667 L131.666667,98.6666667 L131.666667,118.666667 L126.666667,118.666667 L126.666667,98.6666667 L120,98.6666667 L120,94 L138.333333,94 L138.333333,98.6666667 Z M158.333333,118.666667 L153.333333,118.666667 L153.333333,108 C153.333333,107.244441 153.07778,106.611114 152.566667,106.1 C152.055553,105.588886 151.477781,105.333333 150.833333,105.333333 L145,105.333333 L145,118.666667 L140,118.666667 L140,94 L145,94 L145,100.666667 L150.833333,100.666667 C152.922233,100.666667 154.694437,101.394437 156.15,102.85 C157.605563,104.305563 158.333333,106.022212 158.333333,108 L158.333333,118.666667 Z M178.333333,118.666667 L167.5,118.666667 C165.411101,118.666667 163.638896,117.938896 162.183333,116.483333 C160.72777,115.027771 160,113.311121 160,111.333333 L160,108 C160,106.022212 160.72777,104.305563 162.183333,102.85 C163.638896,101.394437 165.411101,100.666667 167.5,100.666667 L170.833333,100.666667 C172.922233,100.666667 174.694437,101.394437 176.15,102.85 C177.605563,104.305563 178.333333,106.022212 178.333333,108 L178.333333,112 L165,112 C165,112.311113 165.255553,112.72222 165.766667,113.233333 C166.27778,113.744447 166.855552,114 167.5,114 L178.333333,114 L178.333333,118.666667 Z M173.333333,107.333333 C173.333333,107.022221 173.07778,106.611114 172.566667,106.1 C172.055553,105.588886 171.477781,105.333333 170.833333,105.333333 L167.5,105.333333 C166.855552,105.333333 166.27778,105.588886 165.766667,106.1 C165.255553,106.611114 165,107.022221 165,107.333333 L173.333333,107.333333 Z M198.333333,118.666667 L180,118.666667 L180,94 L185,94 L185,114 L198.333333,114 L198.333333,118.666667 Z M211.666667,96.3333333 C211.666667,96.9555587 211.433336,97.4999977 210.966667,97.9666667 C210.499998,98.4333357 209.900004,98.6666667 209.166667,98.6666667 C208.43333,98.6666667 207.833336,98.4333357 207.366667,97.9666667 C206.899998,97.4999977 206.666667,96.9555587 206.666667,96.3333333 C206.666667,95.711108 206.899998,95.166669 207.366667,94.7 C207.833336,94.233331 208.43333,94 209.166667,94 C209.900004,94 210.499998,94.233331 210.966667,94.7 C211.433336,95.166669 211.666667,95.711108 211.666667,96.3333333 Z M215,118.666667 L203.333333,118.666667 L203.333333,114 L206.666667,114 L206.666667,105.333333 L203.333333,105.333333 L203.333333,100.666667 L211.666667,100.666667 L211.666667,114 L215,114 L215,118.666667 Z M238.333333,100.666667 L238.333333,105.333333 L228.766667,105.333333 C227.744439,105.333333 226.933336,105.449999 226.333333,105.683333 C225.73333,105.916668 225.433333,106.133332 225.433333,106.333333 C225.433333,106.533334 225.73333,106.749999 226.333333,106.983333 C226.933336,107.216668 227.744439,107.333333 228.766667,107.333333 L229.6,107.333333 C231.866678,107.333333 233.822214,107.883328 235.466667,108.983333 C237.111119,110.083339 237.933333,111.422214 237.933333,113 C237.933333,114.577786 237.111119,115.916661 235.466667,117.016667 C233.822214,118.116672 231.866678,118.666667 229.6,118.666667 L220,118.666667 L220,114 L229.6,114 C230.600005,114 231.405552,113.883335 232.016667,113.65 C232.627781,113.416665 232.933333,113.200001 232.933333,113 C232.933333,112.799999 232.627781,112.583335 232.016667,112.35 C231.405552,112.116665 230.600005,112 229.6,112 L228.766667,112 C226.477766,112 224.516675,111.450006 222.883333,110.35 C221.249992,109.249994 220.433333,107.911119 220.433333,106.333333 C220.433333,104.755548 221.249992,103.416672 222.883333,102.316667 C224.516675,101.216661 226.477766,100.666667 228.766667,100.666667 L238.333333,100.666667 Z M258.333333,118.666667 L254.166667,118.666667 C252.077767,118.666667 250.305563,117.938896 248.85,116.483333 C247.394437,115.027771 246.666667,113.311121 246.666667,111.333333 L246.666667,105.333333 L243.333333,105.333333 L243.333333,100.666667 L246.666667,100.666667 L246.666667,94 L251.666667,94 L251.666667,100.666667 L255,100.666667 L255,105.333333 L251.666667,105.333333 L251.666667,111.333333 C251.666667,112.088893 251.92222,112.72222 252.433333,113.233333 C252.944447,113.744447 253.522219,114 254.166667,114 L258.333333,114 L258.333333,118.666667 Z M278.333333,100.666667 L278.333333,105.333333 L268.766667,105.333333 C267.744439,105.333333 266.933336,105.449999 266.333333,105.683333 C265.73333,105.916668 265.433333,106.133332 265.433333,106.333333 C265.433333,106.533334 265.73333,106.749999 266.333333,106.983333 C266.933336,107.216668 267.744439,107.333333 268.766667,107.333333 L269.6,107.333333 C271.866678,107.333333 273.822214,107.883328 275.466667,108.983333 C277.111119,110.083339 277.933333,111.422214 277.933333,113 C277.933333,114.577786 277.111119,115.916661 275.466667,117.016667 C273.822214,118.116672 271.866678,118.666667 269.6,118.666667 L260,118.666667 L260,114 L269.6,114 C270.600005,114 271.405552,113.883335 272.016667,113.65 C272.627781,113.416665 272.933333,113.200001 272.933333,113 C272.933333,112.799999 272.627781,112.583335 272.016667,112.35 C271.405552,112.116665 270.600005,112 269.6,112 L268.766667,112 C266.477766,112 264.516675,111.450006 262.883333,110.35 C261.249992,109.249994 260.433333,107.911119 260.433333,106.333333 C260.433333,104.755548 261.249992,103.416672 262.883333,102.316667 C264.516675,101.216661 266.477766,100.666667 268.766667,100.666667 L278.333333,100.666667 Z" id="CheckTheLists" fill="#000000" fill-rule="nonzero"></path>
        <polygon id="Path" points="278 73 341 73 341 136 278 136"></polygon>
        <path d="M301.272727,113.224982 L330.181818,85.5384151 L337.614434,92.6567164 L301.272727,127.461585 L282.385566,109.373134 L289.818182,102.254833 L301.272727,113.224982 Z" id="Path" stroke="#FFFFFF" stroke-width="5" fill="#3DC800" fill-rule="nonzero"></path>
    </g>
</svg>